<svg width="32" height="25" viewBox="0 0 32 25" fill="none" xmlns="http://www.w3.org/2000/svg">
<path d="M26.667 0C27.993 8.63693e-05 29.2645 0.527239 30.2021 1.46484C31.1397 2.40251 31.667 3.67399 31.667 5V20C31.667 21.326 31.1397 22.5975 30.2021 23.5352C29.2645 24.4728 27.993 24.9999 26.667 25H5C3.67392 25 2.40253 24.4728 1.46484 23.5352C0.527162 22.5975 0 21.3261 0 20V5C0 3.67392 0.527162 2.40253 1.46484 1.46484C2.40253 0.527162 3.67392 0 5 0H26.667ZM1.66699 20C1.66699 20.8841 2.01746 21.7323 2.64258 22.3574C3.2677 22.9825 4.11595 23.333 5 23.333H26.667C27.5508 23.3329 28.3984 22.9823 29.0234 22.3574C29.6486 21.7323 30 20.8841 30 20V11.667H1.66699V20ZM11.667 20H5V18.333H11.667V20ZM20 20H15V18.333H20V20ZM1.66699 10H30V8.33301H1.66699V10ZM5 1.66699C4.11594 1.66699 3.2677 2.01746 2.64258 2.64258C2.01746 3.2677 1.66699 4.11594 1.66699 5V6.66699H30V5C30 4.11594 29.6486 3.2677 29.0234 2.64258C28.3984 2.01774 27.5508 1.66708 26.667 1.66699H5Z" fill="#124F48"/>
<path d="M26.667 0C27.993 8.63693e-05 29.2645 0.527239 30.2021 1.46484C31.1397 2.40251 31.667 3.67399 31.667 5V20C31.667 21.326 31.1397 22.5975 30.2021 23.5352C29.2645 24.4728 27.993 24.9999 26.667 25H5C3.67392 25 2.40253 24.4728 1.46484 23.5352C0.527162 22.5975 0 21.3261 0 20V5C0 3.67392 0.527162 2.40253 1.46484 1.46484C2.40253 0.527162 3.67392 0 5 0H26.667ZM1.66699 20C1.66699 20.8841 2.01746 21.7323 2.64258 22.3574C3.2677 22.9825 4.11595 23.333 5 23.333H26.667C27.5508 23.3329 28.3984 22.9823 29.0234 22.3574C29.6486 21.7323 30 20.8841 30 20V11.667H1.66699V20ZM11.667 20H5V18.333H11.667V20ZM20 20H15V18.333H20V20ZM1.66699 10H30V8.33301H1.66699V10ZM5 1.66699C4.11594 1.66699 3.2677 2.01746 2.64258 2.64258C2.01746 3.2677 1.66699 4.11594 1.66699 5V6.66699H30V5C30 4.11594 29.6486 3.2677 29.0234 2.64258C28.3984 2.01774 27.5508 1.66708 26.667 1.66699H5Z" stroke="black"/>
</svg>
