<svg width="22" height="22" viewBox="0 0 22 22" fill="none" xmlns="http://www.w3.org/2000/svg">
<path d="M4.63158 22H1.15789C0.517579 22 0 21.4813 0 20.8421L0 11.5789C0 10.9398 0.517579 10.4211 1.15789 10.4211H4.63158C5.27189 10.4211 5.78947 10.9398 5.78947 11.5789V20.8421C5.78947 21.4813 5.27189 22 4.63158 22ZM12.7368 22H9.26316C8.62284 22 8.10526 21.4813 8.10526 20.8421L8.10526 1.15789C8.10526 0.518737 8.62284 0 9.26316 0L12.7368 0C13.3772 0 13.8947 0.518737 13.8947 1.15789L13.8947 20.8421C13.8947 21.4813 13.3772 22 12.7368 22ZM20.8421 22H17.3684C16.7281 22 16.2105 21.4813 16.2105 20.8421V8.10526C16.2105 7.46611 16.7281 6.94737 17.3684 6.94737H20.8421C21.4824 6.94737 22 7.46611 22 8.10526V20.8421C22 21.4813 21.4824 22 20.8421 22Z" fill="white"/>
</svg>
