<svg width="157" height="64" viewBox="0 0 157 64" fill="none" xmlns="http://www.w3.org/2000/svg">
<path d="M8 38H19C21.2091 38 23 36.2091 23 34V8C23 6.34315 21.6569 5 20 5H11C9.34315 5 8 6.34315 8 8V38Z" fill="#124F48"/>
<path d="M17 13C17 11.3431 15.6569 10 14 10H3C1.34315 10 0 11.3431 0 13V33H15C16.1046 33 17 32.1046 17 31V13Z" fill="#FF823B"/>
<circle cx="5.5" cy="5.5" r="5.5" transform="matrix(1 0 0 -1 3 27)" fill="#124F48"/>
<path d="M42.2031 33C42.0156 32.625 41.8633 31.957 41.7461 30.9961C40.2344 32.5664 38.4297 33.3516 36.332 33.3516C34.457 33.3516 32.916 32.8242 31.709 31.7695C30.5137 30.7031 29.916 29.3555 29.916 27.7266C29.916 25.7461 30.666 24.2109 32.166 23.1211C33.6777 22.0195 35.7988 21.4688 38.5293 21.4688H41.6934V19.9746C41.6934 18.8379 41.3535 17.9355 40.6738 17.2676C39.9941 16.5879 38.9922 16.248 37.668 16.248C36.5078 16.248 35.5352 16.541 34.75 17.127C33.9648 17.7129 33.5723 18.4219 33.5723 19.2539H30.3027C30.3027 18.3047 30.6367 17.3906 31.3047 16.5117C31.9844 15.6211 32.8984 14.918 34.0469 14.4023C35.207 13.8867 36.4785 13.6289 37.8613 13.6289C40.0527 13.6289 41.7695 14.1797 43.0117 15.2812C44.2539 16.3711 44.8984 17.877 44.9453 19.7988V28.5527C44.9453 30.2988 45.168 31.6875 45.6133 32.7188V33H42.2031ZM36.8066 30.5215C37.8262 30.5215 38.793 30.2578 39.707 29.7305C40.6211 29.2031 41.2832 28.5176 41.6934 27.6738V23.7715H39.1445C35.1602 23.7715 33.168 24.9375 33.168 27.2695C33.168 28.2891 33.5078 29.0859 34.1875 29.6602C34.8672 30.2344 35.7402 30.5215 36.8066 30.5215ZM53.1016 13.9805L53.1895 16.0898C54.584 14.4492 56.4648 13.6289 58.832 13.6289C61.4922 13.6289 63.3027 14.6484 64.2637 16.6875C64.8965 15.7734 65.7168 15.0352 66.7246 14.4727C67.7441 13.9102 68.9453 13.6289 70.3281 13.6289C74.5 13.6289 76.6211 15.8379 76.6914 20.2559V33H73.4395V20.4492C73.4395 19.0898 73.1289 18.0762 72.5078 17.4082C71.8867 16.7285 70.8438 16.3887 69.3789 16.3887C68.1719 16.3887 67.1699 16.752 66.373 17.4785C65.5762 18.1934 65.1133 19.1602 64.9844 20.3789V33H61.7148V20.5371C61.7148 17.7715 60.3613 16.3887 57.6543 16.3887C55.5215 16.3887 54.0625 17.2969 53.2773 19.1133V33H50.0254V13.9805H53.1016ZM85.1465 33H81.8945V13.9805H85.1465V33ZM81.6309 8.93555C81.6309 8.4082 81.7891 7.96289 82.1055 7.59961C82.4336 7.23633 82.9141 7.05469 83.5469 7.05469C84.1797 7.05469 84.6602 7.23633 84.9883 7.59961C85.3164 7.96289 85.4805 8.4082 85.4805 8.93555C85.4805 9.46289 85.3164 9.90234 84.9883 10.2539C84.6602 10.6055 84.1797 10.7812 83.5469 10.7812C82.9141 10.7812 82.4336 10.6055 82.1055 10.2539C81.7891 9.90234 81.6309 9.46289 81.6309 8.93555ZM89.5762 23.332C89.5762 20.4141 90.2676 18.0703 91.6504 16.3008C93.0332 14.5195 94.8438 13.6289 97.082 13.6289C99.3086 13.6289 101.072 14.3906 102.373 15.9141V6H105.625V33H102.637L102.479 30.9609C101.178 32.5547 99.3672 33.3516 97.0469 33.3516C94.8438 33.3516 93.0449 32.4492 91.6504 30.6445C90.2676 28.8398 89.5762 26.4844 89.5762 23.5781V23.332ZM92.8281 23.7012C92.8281 25.8574 93.2734 27.5449 94.1641 28.7637C95.0547 29.9824 96.2852 30.5918 97.8555 30.5918C99.918 30.5918 101.424 29.666 102.373 27.8145V19.0781C101.4 17.2852 99.9062 16.3887 97.8906 16.3887C96.2969 16.3887 95.0547 17.0039 94.1641 18.2344C93.2734 19.4648 92.8281 21.2871 92.8281 23.7012ZM110.758 31.2949C110.758 30.7324 110.922 30.2637 111.25 29.8887C111.59 29.5137 112.094 29.3262 112.762 29.3262C113.43 29.3262 113.934 29.5137 114.273 29.8887C114.625 30.2637 114.801 30.7324 114.801 31.2949C114.801 31.834 114.625 32.2852 114.273 32.6484C113.934 33.0117 113.43 33.1934 112.762 33.1934C112.094 33.1934 111.59 33.0117 111.25 32.6484C110.922 32.2852 110.758 31.834 110.758 31.2949Z" fill="#124F48"/>
<path d="M6.1875 57.9004C6.1875 58.8691 5.96484 59.6484 5.51953 60.2383C5.07422 60.8242 4.47656 61.1172 3.72656 61.1172C2.92578 61.1172 2.30664 60.834 1.86914 60.2676L1.81641 61H0.820312V52H1.9043V55.3574C2.3418 54.8145 2.94531 54.543 3.71484 54.543C4.48438 54.543 5.08789 54.834 5.52539 55.416C5.9668 55.998 6.1875 56.7949 6.1875 57.8066V57.9004ZM5.10352 57.7773C5.10352 57.0391 4.96094 56.4688 4.67578 56.0664C4.39062 55.6641 3.98047 55.4629 3.44531 55.4629C2.73047 55.4629 2.2168 55.7949 1.9043 56.459V59.2012C2.23633 59.8652 2.75391 60.1973 3.45703 60.1973C3.97656 60.1973 4.38086 59.9961 4.66992 59.5938C4.95898 59.1914 5.10352 58.5859 5.10352 57.7773ZM11.4727 60.373C11.0508 60.8691 10.4316 61.1172 9.61523 61.1172C8.93945 61.1172 8.42383 60.9219 8.06836 60.5312C7.7168 60.1367 7.53906 59.5547 7.53516 58.7852V54.6602H8.61914V58.7559C8.61914 59.7168 9.00977 60.1973 9.79102 60.1973C10.6191 60.1973 11.1699 59.8887 11.4434 59.2715V54.6602H12.5273V61H11.4961L11.4727 60.373ZM17.8711 59.3184C17.8711 59.0254 17.7598 58.7988 17.5371 58.6387C17.3184 58.4746 16.9336 58.334 16.3828 58.2168C15.8359 58.0996 15.4004 57.959 15.0762 57.7949C14.7559 57.6309 14.5176 57.4355 14.3613 57.209C14.209 56.9824 14.1328 56.7129 14.1328 56.4004C14.1328 55.8809 14.3516 55.4414 14.7891 55.082C15.2305 54.7227 15.793 54.543 16.4766 54.543C17.1953 54.543 17.7773 54.7285 18.2227 55.0996C18.6719 55.4707 18.8965 55.9453 18.8965 56.5234H17.8066C17.8066 56.2266 17.6797 55.9707 17.4258 55.7559C17.1758 55.541 16.8594 55.4336 16.4766 55.4336C16.082 55.4336 15.7734 55.5195 15.5508 55.6914C15.3281 55.8633 15.2168 56.0879 15.2168 56.3652C15.2168 56.627 15.3203 56.8242 15.5273 56.957C15.7344 57.0898 16.1074 57.2168 16.6465 57.3379C17.1895 57.459 17.6289 57.6035 17.9648 57.7715C18.3008 57.9395 18.5488 58.1426 18.709 58.3809C18.873 58.6152 18.9551 58.9023 18.9551 59.2422C18.9551 59.8086 18.7285 60.2637 18.2754 60.6074C17.8223 60.9473 17.2344 61.1172 16.5117 61.1172C16.0039 61.1172 15.5547 61.0273 15.1641 60.8477C14.7734 60.668 14.4668 60.418 14.2441 60.0977C14.0254 59.7734 13.916 59.4238 13.916 59.0488H15C15.0195 59.4121 15.1641 59.7012 15.4336 59.916C15.707 60.127 16.0664 60.2324 16.5117 60.2324C16.9219 60.2324 17.25 60.1504 17.4961 59.9863C17.7461 59.8184 17.8711 59.5957 17.8711 59.3184ZM21.5449 61H20.4609V54.6602H21.5449V61ZM20.373 52.9785C20.373 52.8027 20.4258 52.6543 20.5312 52.5332C20.6406 52.4121 20.8008 52.3516 21.0117 52.3516C21.2227 52.3516 21.3828 52.4121 21.4922 52.5332C21.6016 52.6543 21.6562 52.8027 21.6562 52.9785C21.6562 53.1543 21.6016 53.3008 21.4922 53.418C21.3828 53.5352 21.2227 53.5938 21.0117 53.5938C20.8008 53.5938 20.6406 53.5352 20.5312 53.418C20.4258 53.3008 20.373 53.1543 20.373 52.9785ZM24.3105 54.6602L24.3457 55.457C24.8301 54.8477 25.4629 54.543 26.2441 54.543C27.584 54.543 28.2598 55.2988 28.2715 56.8105V61H27.1875V56.8047C27.1836 56.3477 27.0781 56.0098 26.8711 55.791C26.668 55.5723 26.3496 55.4629 25.916 55.4629C25.5645 55.4629 25.2559 55.5566 24.9902 55.7441C24.7246 55.9316 24.5176 56.1777 24.3691 56.4824V61H23.2852V54.6602H24.3105ZM32.5371 61.1172C31.6777 61.1172 30.9785 60.8359 30.4395 60.2734C29.9004 59.707 29.6309 58.9512 29.6309 58.0059V57.8066C29.6309 57.1777 29.75 56.6172 29.9883 56.125C30.2305 55.6289 30.5664 55.2422 30.9961 54.9648C31.4297 54.6836 31.8984 54.543 32.4023 54.543C33.2266 54.543 33.8672 54.8145 34.3242 55.3574C34.7812 55.9004 35.0098 56.6777 35.0098 57.6895V58.1406H30.7148C30.7305 58.7656 30.9121 59.2715 31.2598 59.6582C31.6113 60.041 32.0566 60.2324 32.5957 60.2324C32.9785 60.2324 33.3027 60.1543 33.5684 59.998C33.834 59.8418 34.0664 59.6348 34.2656 59.377L34.9277 59.8926C34.3965 60.709 33.5996 61.1172 32.5371 61.1172ZM32.4023 55.4336C31.9648 55.4336 31.5977 55.5938 31.3008 55.9141C31.0039 56.2305 30.8203 56.6758 30.75 57.25H33.9258V57.168C33.8945 56.6172 33.7461 56.1914 33.4805 55.8906C33.2148 55.5859 32.8555 55.4336 32.4023 55.4336ZM39.9609 59.3184C39.9609 59.0254 39.8496 58.7988 39.627 58.6387C39.4082 58.4746 39.0234 58.334 38.4727 58.2168C37.9258 58.0996 37.4902 57.959 37.166 57.7949C36.8457 57.6309 36.6074 57.4355 36.4512 57.209C36.2988 56.9824 36.2227 56.7129 36.2227 56.4004C36.2227 55.8809 36.4414 55.4414 36.8789 55.082C37.3203 54.7227 37.8828 54.543 38.5664 54.543C39.2852 54.543 39.8672 54.7285 40.3125 55.0996C40.7617 55.4707 40.9863 55.9453 40.9863 56.5234H39.8965C39.8965 56.2266 39.7695 55.9707 39.5156 55.7559C39.2656 55.541 38.9492 55.4336 38.5664 55.4336C38.1719 55.4336 37.8633 55.5195 37.6406 55.6914C37.418 55.8633 37.3066 56.0879 37.3066 56.3652C37.3066 56.627 37.4102 56.8242 37.6172 56.957C37.8242 57.0898 38.1973 57.2168 38.7363 57.3379C39.2793 57.459 39.7188 57.6035 40.0547 57.7715C40.3906 57.9395 40.6387 58.1426 40.7988 58.3809C40.9629 58.6152 41.0449 58.9023 41.0449 59.2422C41.0449 59.8086 40.8184 60.2637 40.3652 60.6074C39.9121 60.9473 39.3242 61.1172 38.6016 61.1172C38.0938 61.1172 37.6445 61.0273 37.2539 60.8477C36.8633 60.668 36.5566 60.418 36.334 60.0977C36.1152 59.7734 36.0059 59.4238 36.0059 59.0488H37.0898C37.1094 59.4121 37.2539 59.7012 37.5234 59.916C37.7969 60.127 38.1562 60.2324 38.6016 60.2324C39.0117 60.2324 39.3398 60.1504 39.5859 59.9863C39.8359 59.8184 39.9609 59.5957 39.9609 59.3184ZM46.1484 59.3184C46.1484 59.0254 46.0371 58.7988 45.8145 58.6387C45.5957 58.4746 45.2109 58.334 44.6602 58.2168C44.1133 58.0996 43.6777 57.959 43.3535 57.7949C43.0332 57.6309 42.7949 57.4355 42.6387 57.209C42.4863 56.9824 42.4102 56.7129 42.4102 56.4004C42.4102 55.8809 42.6289 55.4414 43.0664 55.082C43.5078 54.7227 44.0703 54.543 44.7539 54.543C45.4727 54.543 46.0547 54.7285 46.5 55.0996C46.9492 55.4707 47.1738 55.9453 47.1738 56.5234H46.084C46.084 56.2266 45.957 55.9707 45.7031 55.7559C45.4531 55.541 45.1367 55.4336 44.7539 55.4336C44.3594 55.4336 44.0508 55.5195 43.8281 55.6914C43.6055 55.8633 43.4941 56.0879 43.4941 56.3652C43.4941 56.627 43.5977 56.8242 43.8047 56.957C44.0117 57.0898 44.3848 57.2168 44.9238 57.3379C45.4668 57.459 45.9062 57.6035 46.2422 57.7715C46.5781 57.9395 46.8262 58.1426 46.9863 58.3809C47.1504 58.6152 47.2324 58.9023 47.2324 59.2422C47.2324 59.8086 47.0059 60.2637 46.5527 60.6074C46.0996 60.9473 45.5117 61.1172 44.7891 61.1172C44.2812 61.1172 43.832 61.0273 43.4414 60.8477C43.0508 60.668 42.7441 60.418 42.5215 60.0977C42.3027 59.7734 42.1934 59.4238 42.1934 59.0488H43.2773C43.2969 59.4121 43.4414 59.7012 43.7109 59.916C43.9844 60.127 44.3438 60.2324 44.7891 60.2324C45.1992 60.2324 45.5273 60.1504 45.7734 59.9863C46.0234 59.8184 46.1484 59.5957 46.1484 59.3184ZM54.1641 60.2324C54.5508 60.2324 54.8887 60.1152 55.1777 59.8809C55.4668 59.6465 55.627 59.3535 55.6582 59.002H56.6836C56.6641 59.3652 56.5391 59.7109 56.3086 60.0391C56.0781 60.3672 55.7695 60.6289 55.3828 60.8242C55 61.0195 54.5938 61.1172 54.1641 61.1172C53.3008 61.1172 52.6133 60.8301 52.1016 60.2559C51.5938 59.6777 51.3398 58.8887 51.3398 57.8887V57.707C51.3398 57.0898 51.4531 56.541 51.6797 56.0605C51.9062 55.5801 52.2305 55.207 52.6523 54.9414C53.0781 54.6758 53.5801 54.543 54.1582 54.543C54.8691 54.543 55.459 54.7559 55.9277 55.1816C56.4004 55.6074 56.6523 56.1602 56.6836 56.8398H55.6582C55.627 56.4297 55.4707 56.0938 55.1895 55.832C54.9121 55.5664 54.5684 55.4336 54.1582 55.4336C53.6074 55.4336 53.1797 55.6328 52.875 56.0312C52.5742 56.4258 52.4238 56.998 52.4238 57.748V57.9531C52.4238 58.6836 52.5742 59.2461 52.875 59.6406C53.1758 60.0352 53.6055 60.2324 54.1641 60.2324ZM57.6152 57.7715C57.6152 57.1504 57.7363 56.5918 57.9785 56.0957C58.2246 55.5996 58.5645 55.2168 58.998 54.9473C59.4355 54.6777 59.9336 54.543 60.4922 54.543C61.3555 54.543 62.0527 54.8418 62.584 55.4395C63.1191 56.0371 63.3867 56.832 63.3867 57.8242V57.9004C63.3867 58.5176 63.2676 59.0723 63.0293 59.5645C62.7949 60.0527 62.457 60.4336 62.0156 60.707C61.5781 60.9805 61.0742 61.1172 60.5039 61.1172C59.6445 61.1172 58.9473 60.8184 58.4121 60.2207C57.8809 59.623 57.6152 58.832 57.6152 57.8477V57.7715ZM58.7051 57.9004C58.7051 58.6035 58.8672 59.168 59.1914 59.5938C59.5195 60.0195 59.957 60.2324 60.5039 60.2324C61.0547 60.2324 61.4922 60.0176 61.8164 59.5879C62.1406 59.1543 62.3027 58.5488 62.3027 57.7715C62.3027 57.0762 62.1367 56.5137 61.8047 56.084C61.4766 55.6504 61.0391 55.4336 60.4922 55.4336C59.957 55.4336 59.5254 55.6465 59.1973 56.0723C58.8691 56.498 58.7051 57.1074 58.7051 57.9004ZM65.7715 54.6602L65.8066 55.457C66.291 54.8477 66.9238 54.543 67.7051 54.543C69.0449 54.543 69.7207 55.2988 69.7324 56.8105V61H68.6484V56.8047C68.6445 56.3477 68.5391 56.0098 68.332 55.791C68.1289 55.5723 67.8105 55.4629 67.377 55.4629C67.0254 55.4629 66.7168 55.5566 66.4512 55.7441C66.1855 55.9316 65.9785 56.1777 65.8301 56.4824V61H64.7461V54.6602H65.7715ZM75.0586 59.3184C75.0586 59.0254 74.9473 58.7988 74.7246 58.6387C74.5059 58.4746 74.1211 58.334 73.5703 58.2168C73.0234 58.0996 72.5879 57.959 72.2637 57.7949C71.9434 57.6309 71.7051 57.4355 71.5488 57.209C71.3965 56.9824 71.3203 56.7129 71.3203 56.4004C71.3203 55.8809 71.5391 55.4414 71.9766 55.082C72.418 54.7227 72.9805 54.543 73.6641 54.543C74.3828 54.543 74.9648 54.7285 75.4102 55.0996C75.8594 55.4707 76.084 55.9453 76.084 56.5234H74.9941C74.9941 56.2266 74.8672 55.9707 74.6133 55.7559C74.3633 55.541 74.0469 55.4336 73.6641 55.4336C73.2695 55.4336 72.9609 55.5195 72.7383 55.6914C72.5156 55.8633 72.4043 56.0879 72.4043 56.3652C72.4043 56.627 72.5078 56.8242 72.7148 56.957C72.9219 57.0898 73.2949 57.2168 73.834 57.3379C74.377 57.459 74.8164 57.6035 75.1523 57.7715C75.4883 57.9395 75.7363 58.1426 75.8965 58.3809C76.0605 58.6152 76.1426 58.9023 76.1426 59.2422C76.1426 59.8086 75.916 60.2637 75.4629 60.6074C75.0098 60.9473 74.4219 61.1172 73.6992 61.1172C73.1914 61.1172 72.7422 61.0273 72.3516 60.8477C71.9609 60.668 71.6543 60.418 71.4316 60.0977C71.2129 59.7734 71.1035 59.4238 71.1035 59.0488H72.1875C72.207 59.4121 72.3516 59.7012 72.6211 59.916C72.8945 60.127 73.2539 60.2324 73.6992 60.2324C74.1094 60.2324 74.4375 60.1504 74.6836 59.9863C74.9336 59.8184 75.0586 59.5957 75.0586 59.3184ZM81.4688 60.373C81.0469 60.8691 80.4277 61.1172 79.6113 61.1172C78.9355 61.1172 78.4199 60.9219 78.0645 60.5312C77.7129 60.1367 77.5352 59.5547 77.5312 58.7852V54.6602H78.6152V58.7559C78.6152 59.7168 79.0059 60.1973 79.7871 60.1973C80.6152 60.1973 81.166 59.8887 81.4395 59.2715V54.6602H82.5234V61H81.4922L81.4688 60.373ZM85.3535 61H84.2695V52H85.3535V61ZM88.5645 53.125V54.6602H89.748V55.498H88.5645V59.4297C88.5645 59.6836 88.6172 59.875 88.7227 60.0039C88.8281 60.1289 89.0078 60.1914 89.2617 60.1914C89.3867 60.1914 89.5586 60.168 89.7773 60.1211V61C89.4922 61.0781 89.2148 61.1172 88.9453 61.1172C88.4609 61.1172 88.0957 60.9707 87.8496 60.6777C87.6035 60.3848 87.4805 59.9688 87.4805 59.4297V55.498H86.3262V54.6602H87.4805V53.125H88.5645ZM94.9336 61C94.8711 60.875 94.8203 60.6523 94.7812 60.332C94.2773 60.8555 93.6758 61.1172 92.9766 61.1172C92.3516 61.1172 91.8379 60.9414 91.4355 60.5898C91.0371 60.2344 90.8379 59.7852 90.8379 59.2422C90.8379 58.582 91.0879 58.0703 91.5879 57.707C92.0918 57.3398 92.7988 57.1562 93.709 57.1562H94.7637V56.6582C94.7637 56.2793 94.6504 55.9785 94.4238 55.7559C94.1973 55.5293 93.8633 55.416 93.4219 55.416C93.0352 55.416 92.7109 55.5137 92.4492 55.709C92.1875 55.9043 92.0566 56.1406 92.0566 56.418H90.9668C90.9668 56.1016 91.0781 55.7969 91.3008 55.5039C91.5273 55.207 91.832 54.9727 92.2148 54.8008C92.6016 54.6289 93.0254 54.543 93.4863 54.543C94.2168 54.543 94.7891 54.7266 95.2031 55.0938C95.6172 55.457 95.832 55.959 95.8477 56.5996V59.5176C95.8477 60.0996 95.9219 60.5625 96.0703 60.9062V61H94.9336ZM93.1348 60.1738C93.4746 60.1738 93.7969 60.0859 94.1016 59.9102C94.4062 59.7344 94.627 59.5059 94.7637 59.2246V57.9238H93.9141C92.5859 57.9238 91.9219 58.3125 91.9219 59.0898C91.9219 59.4297 92.0352 59.6953 92.2617 59.8867C92.4883 60.0781 92.7793 60.1738 93.1348 60.1738ZM98.5723 54.6602L98.6074 55.457C99.0918 54.8477 99.7246 54.543 100.506 54.543C101.846 54.543 102.521 55.2988 102.533 56.8105V61H101.449V56.8047C101.445 56.3477 101.34 56.0098 101.133 55.791C100.93 55.5723 100.611 55.4629 100.178 55.4629C99.8262 55.4629 99.5176 55.5566 99.252 55.7441C98.9863 55.9316 98.7793 56.1777 98.6309 56.4824V61H97.5469V54.6602H98.5723ZM106.711 60.2324C107.098 60.2324 107.436 60.1152 107.725 59.8809C108.014 59.6465 108.174 59.3535 108.205 59.002H109.23C109.211 59.3652 109.086 59.7109 108.855 60.0391C108.625 60.3672 108.316 60.6289 107.93 60.8242C107.547 61.0195 107.141 61.1172 106.711 61.1172C105.848 61.1172 105.16 60.8301 104.648 60.2559C104.141 59.6777 103.887 58.8887 103.887 57.8887V57.707C103.887 57.0898 104 56.541 104.227 56.0605C104.453 55.5801 104.777 55.207 105.199 54.9414C105.625 54.6758 106.127 54.543 106.705 54.543C107.416 54.543 108.006 54.7559 108.475 55.1816C108.947 55.6074 109.199 56.1602 109.23 56.8398H108.205C108.174 56.4297 108.018 56.0938 107.736 55.832C107.459 55.5664 107.115 55.4336 106.705 55.4336C106.154 55.4336 105.727 55.6328 105.422 56.0312C105.121 56.4258 104.971 56.998 104.971 57.748V57.9531C104.971 58.6836 105.121 59.2461 105.422 59.6406C105.723 60.0352 106.152 60.2324 106.711 60.2324ZM112.523 59.4121L114 54.6602H115.16L112.611 61.9785C112.217 63.0332 111.59 63.5605 110.73 63.5605L110.525 63.543L110.121 63.4668V62.5879L110.414 62.6113C110.781 62.6113 111.066 62.5371 111.27 62.3887C111.477 62.2402 111.646 61.9688 111.779 61.5742L112.02 60.9297L109.758 54.6602H110.941L112.523 59.4121ZM123.023 61C122.961 60.875 122.91 60.6523 122.871 60.332C122.367 60.8555 121.766 61.1172 121.066 61.1172C120.441 61.1172 119.928 60.9414 119.525 60.5898C119.127 60.2344 118.928 59.7852 118.928 59.2422C118.928 58.582 119.178 58.0703 119.678 57.707C120.182 57.3398 120.889 57.1562 121.799 57.1562H122.854V56.6582C122.854 56.2793 122.74 55.9785 122.514 55.7559C122.287 55.5293 121.953 55.416 121.512 55.416C121.125 55.416 120.801 55.5137 120.539 55.709C120.277 55.9043 120.146 56.1406 120.146 56.418H119.057C119.057 56.1016 119.168 55.7969 119.391 55.5039C119.617 55.207 119.922 54.9727 120.305 54.8008C120.691 54.6289 121.115 54.543 121.576 54.543C122.307 54.543 122.879 54.7266 123.293 55.0938C123.707 55.457 123.922 55.959 123.938 56.5996V59.5176C123.938 60.0996 124.012 60.5625 124.16 60.9062V61H123.023ZM121.225 60.1738C121.564 60.1738 121.887 60.0859 122.191 59.9102C122.496 59.7344 122.717 59.5059 122.854 59.2246V57.9238H122.004C120.676 57.9238 120.012 58.3125 120.012 59.0898C120.012 59.4297 120.125 59.6953 120.352 59.8867C120.578 60.0781 120.869 60.1738 121.225 60.1738ZM125.379 57.7773C125.379 56.7891 125.607 56.0039 126.064 55.4219C126.521 54.8359 127.127 54.543 127.881 54.543C128.654 54.543 129.258 54.8164 129.691 55.3633L129.744 54.6602H130.734V60.8477C130.734 61.668 130.49 62.3145 130.002 62.7871C129.518 63.2598 128.865 63.4961 128.045 63.4961C127.588 63.4961 127.141 63.3984 126.703 63.2031C126.266 63.0078 125.932 62.7402 125.701 62.4004L126.264 61.75C126.729 62.3242 127.297 62.6113 127.969 62.6113C128.496 62.6113 128.906 62.4629 129.199 62.166C129.496 61.8691 129.645 61.4512 129.645 60.9121V60.3672C129.211 60.8672 128.619 61.1172 127.869 61.1172C127.127 61.1172 126.525 60.8184 126.064 60.2207C125.607 59.623 125.379 58.8086 125.379 57.7773ZM126.469 57.9004C126.469 58.6152 126.615 59.1777 126.908 59.5879C127.201 59.9941 127.611 60.1973 128.139 60.1973C128.822 60.1973 129.324 59.8867 129.645 59.2656V56.3711C129.312 55.7656 128.814 55.4629 128.15 55.4629C127.623 55.4629 127.211 55.668 126.914 56.0781C126.617 56.4883 126.469 57.0957 126.469 57.9004ZM135.006 61.1172C134.146 61.1172 133.447 60.8359 132.908 60.2734C132.369 59.707 132.1 58.9512 132.1 58.0059V57.8066C132.1 57.1777 132.219 56.6172 132.457 56.125C132.699 55.6289 133.035 55.2422 133.465 54.9648C133.898 54.6836 134.367 54.543 134.871 54.543C135.695 54.543 136.336 54.8145 136.793 55.3574C137.25 55.9004 137.479 56.6777 137.479 57.6895V58.1406H133.184C133.199 58.7656 133.381 59.2715 133.729 59.6582C134.08 60.041 134.525 60.2324 135.064 60.2324C135.447 60.2324 135.771 60.1543 136.037 59.998C136.303 59.8418 136.535 59.6348 136.734 59.377L137.396 59.8926C136.865 60.709 136.068 61.1172 135.006 61.1172ZM134.871 55.4336C134.434 55.4336 134.066 55.5938 133.77 55.9141C133.473 56.2305 133.289 56.6758 133.219 57.25H136.395V57.168C136.363 56.6172 136.215 56.1914 135.949 55.8906C135.684 55.5859 135.324 55.4336 134.871 55.4336ZM139.764 54.6602L139.799 55.457C140.283 54.8477 140.916 54.543 141.697 54.543C143.037 54.543 143.713 55.2988 143.725 56.8105V61H142.641V56.8047C142.637 56.3477 142.531 56.0098 142.324 55.791C142.121 55.5723 141.803 55.4629 141.369 55.4629C141.018 55.4629 140.709 55.5566 140.443 55.7441C140.178 55.9316 139.971 56.1777 139.822 56.4824V61H138.738V54.6602H139.764ZM147.902 60.2324C148.289 60.2324 148.627 60.1152 148.916 59.8809C149.205 59.6465 149.365 59.3535 149.396 59.002H150.422C150.402 59.3652 150.277 59.7109 150.047 60.0391C149.816 60.3672 149.508 60.6289 149.121 60.8242C148.738 61.0195 148.332 61.1172 147.902 61.1172C147.039 61.1172 146.352 60.8301 145.84 60.2559C145.332 59.6777 145.078 58.8887 145.078 57.8887V57.707C145.078 57.0898 145.191 56.541 145.418 56.0605C145.645 55.5801 145.969 55.207 146.391 54.9414C146.816 54.6758 147.318 54.543 147.896 54.543C148.607 54.543 149.197 54.7559 149.666 55.1816C150.139 55.6074 150.391 56.1602 150.422 56.8398H149.396C149.365 56.4297 149.209 56.0938 148.928 55.832C148.65 55.5664 148.307 55.4336 147.896 55.4336C147.346 55.4336 146.918 55.6328 146.613 56.0312C146.312 56.4258 146.162 56.998 146.162 57.748V57.9531C146.162 58.6836 146.312 59.2461 146.613 59.6406C146.914 60.0352 147.344 60.2324 147.902 60.2324ZM153.715 59.4121L155.191 54.6602H156.352L153.803 61.9785C153.408 63.0332 152.781 63.5605 151.922 63.5605L151.717 63.543L151.312 63.4668V62.5879L151.605 62.6113C151.973 62.6113 152.258 62.5371 152.461 62.3887C152.668 62.2402 152.838 61.9688 152.971 61.5742L153.211 60.9297L150.949 54.6602H152.133L153.715 59.4121Z" fill="#FF823B"/>
</svg>
